<svg xmlns="http://www.w3.org/2000/svg" viewBox="0 0 16 16" shape-rendering="crispEdges" role="img" aria-label="Pixel art alien">
<rect x="0" y="0" width="16" height="16" fill="#0d0a1e"/>
<rect x="4" y="0" width="8" height="1" fill="#6EF29B"/>
<rect x="3" y="1" width="10" height="1" fill="#6EF29B"/>
<rect x="2" y="2" width="12" height="1" fill="#6EF29B"/>
<rect x="1" y="3" width="14" height="1" fill="#6EF29B"/>
<rect x="0" y="4" width="16" height="1" fill="#6EF29B"/>
<rect x="0" y="5" width="4" height="1" fill="#6EF29B"/>
<rect x="4" y="5" width="3" height="1" fill="#f4f1ff"/>
<rect x="7" y="5" width="2" height="1" fill="#6EF29B"/>
<rect x="9" y="5" width="3" height="1" fill="#f4f1ff"/>
<rect x="12" y="5" width="4" height="1" fill="#6EF29B"/>
<rect x="0" y="6" width="4" height="1" fill="#6EF29B"/>
<rect x="4" y="6" width="1" height="1" fill="#f4f1ff"/>
<rect x="5" y="6" width="1" height="1" fill="#0d0a1e"/>
<rect x="6" y="6" width="1" height="1" fill="#f4f1ff"/>
<rect x="7" y="6" width="2" height="1" fill="#6EF29B"/>
<rect x="9" y="6" width="1" height="1" fill="#f4f1ff"/>
<rect x="10" y="6" width="1" height="1" fill="#0d0a1e"/>
<rect x="11" y="6" width="1" height="1" fill="#f4f1ff"/>
<rect x="12" y="6" width="4" height="1" fill="#6EF29B"/>
<rect x="0" y="7" width="16" height="1" fill="#6EF29B"/>
<rect x="0" y="8" width="16" height="1" fill="#6EF29B"/>
<rect x="0" y="9" width="6" height="1" fill="#6EF29B"/>
<rect x="6" y="9" width="4" height="1" fill="#0d0a1e"/>
<rect x="10" y="9" width="6" height="1" fill="#6EF29B"/>
<rect x="0" y="10" width="16" height="1" fill="#6EF29B"/>
<rect x="1" y="11" width="14" height="1" fill="#6EF29B"/>
<rect x="2" y="12" width="12" height="1" fill="#6EF29B"/>
<rect x="3" y="13" width="10" height="1" fill="#6EF29B"/>
<rect x="4" y="14" width="8" height="1" fill="#6EF29B"/>
<rect x="5" y="15" width="2" height="1" fill="#6EF29B"/>
<rect x="9" y="15" width="2" height="1" fill="#6EF29B"/>
</svg>
